<svg width="563" height="153" viewBox="0 0 563 153" fill="none" xmlns="http://www.w3.org/2000/svg">
<path d="M75.27 40.1157L18.46 81.2857L75.27 112.796" stroke="#FFB90B" stroke-width="9.2" stroke-linecap="round"/>
<path d="M339.821 22.8212C339.821 22.8212 315.821 27.8212 319.321 37.3212C322.82 46.8212 331.32 48.0105 351.82 53.1659C372.32 58.3212 392.034 85.4058 390.82 106.32C383.153 81.0548 369.569 73.1023 326.821 80.8212C326.821 80.8212 309.821 70.8222 298.821 69.3212C287.82 67.8203 267.874 72.785 249.82 83.3203C265.426 66.8323 272.817 56.7467 303.82 49.8203C301.435 41.8195 301.216 36.8221 303.321 28.8212C310.621 19.4246 317.295 15.8253 339.821 16.3212C339.821 16.3212 356.321 -2.67876 358.821 0.321237C361.32 3.32124 350.321 14.8212 350.321 14.8212C350.321 14.8212 372.821 15.8212 372.321 19.3212C371.82 22.8212 350.321 23.8212 350.321 23.8212C350.321 23.8212 361.321 37.8212 358.821 38.8212C356.32 39.8212 339.821 22.8212 339.821 22.8212Z" fill="#FFCB49"/>
<path d="M300.819 114.32C299.363 109.135 308.937 102.487 312.819 92.3203L285.319 112.32C287.505 124.076 291.212 129.049 310.319 129.82C310.319 129.82 311.819 151.32 313.819 152.82C315.819 154.32 319.319 136.82 319.319 136.82C319.319 136.82 333.819 150.82 336.819 148.82C339.819 146.82 325.319 129.82 325.319 129.82C325.319 129.82 339.819 127.32 340.819 125.32C341.819 123.32 316.319 121.82 314.819 121.82C313.319 121.82 302.275 119.505 300.819 114.32Z" fill="#FFB90B"/>
<path d="M173.819 41.3202C203.587 52.448 220.846 62.5869 250.819 83.3203C224.097 87.8592 207.766 85.773 176.319 67.3202C158.861 57.5495 148.292 55.0759 128.319 54.8202C144.248 41.3839 154.261 38.6466 173.819 41.3202Z" fill="#FFB90B"/>
<path d="M128.319 54.8157C142.472 43.8517 154.403 43.7155 173.819 41.3203C159.142 36.3436 148.319 34.81 128.319 41.8157C108.319 48.8213 99.3193 73.8157 99.3193 73.8157C108.868 63.361 115.384 59.4865 128.319 54.8157Z" fill="#FFCB49"/>
<path d="M93.8193 116.82C101.907 88.3872 109.521 74.247 129.319 54.3203C116.131 57.6081 109.837 61.9218 99.8193 72.3203C92.2706 91.1921 92.2604 100.56 93.8193 116.82Z" fill="#FFB90B"/>
<path d="M246.32 67.3192C243.2 72.2533 241.274 73.9325 237.32 74.3192L205.82 55.3192C205.82 55.3192 223.82 59.8203 228.32 57.8192C232.82 55.818 206.81 25.3194 209.32 7.81917C214.288 12.3432 216.035 15.9759 218.82 22.8192C218.82 22.8192 225.82 9.31917 232.82 4.81917C239.82 0.319168 225.82 26.8192 225.82 26.8192C225.82 26.8192 245.32 24.318 242.82 26.8192C240.32 29.3203 225.82 36.8192 225.82 36.8192C244.241 48.1637 249.646 54.7972 246.32 67.3192Z" fill="#FFB90B"/>
<path d="M383.319 85.8213C396.424 100.589 389.318 121.322 387.319 122.821C385.319 124.32 380.318 124.322 369.819 119.321C359.319 114.321 342.725 98.6627 326.819 81.3213C325.131 77.8832 370.213 71.0532 383.319 85.8213Z" fill="#FFB90B"/>
<path d="M233.819 115.32C256.789 127.957 272.526 126.738 311.319 93.3203L250.819 82.8203C215.195 88.0284 201.599 79.0483 175.319 66.8203C202.759 86.0874 214.233 96.9096 214.319 115.32C214.576 118.773 196.514 116.82 189.667 115.32C182.819 113.82 158.358 116.397 157.819 118.82C156.819 123.32 173.319 122.32 173.319 122.32C173.319 122.32 157.819 139.82 160.819 141.32C163.819 142.82 180.319 129.32 180.319 129.32C180.319 129.32 180.319 144.82 183.819 145.32C187.319 145.82 187.819 125.32 187.819 125.32C187.819 125.32 217.319 137.82 225.319 132.32C233.319 126.82 233.819 115.32 233.819 115.32Z" fill="#FFCB49"/>
<path d="M249.819 82.8203C280.073 64.2953 297.041 60.3517 327.319 80.8203C315.599 90.8083 310.819 98.321 292.319 99.3207C273.819 100.32 260.32 91.7992 249.819 82.8203Z" fill="#FFB90B"/>
<path d="M448.179 41.6795L414.123 111.195" stroke="#FFB90B" stroke-width="8.58642" stroke-linecap="round"/>
<path d="M487.927 39.6599L544.737 80.8299L487.927 112.34" stroke="#FFB90B" stroke-width="9.2" stroke-linecap="round"/>
</svg>
