<svg width="753" height="153" viewBox="0 0 753 153" fill="none" xmlns="http://www.w3.org/2000/svg">
<path d="M121.125 18.75L28.5 85.875L121.125 137.25" stroke="#FFB90B" stroke-width="15" stroke-linecap="round"/>
<path d="M406.821 22.8212C406.821 22.8212 382.821 27.8212 386.321 37.3212C389.82 46.8212 398.32 48.0105 418.82 53.1659C439.32 58.3212 459.034 85.4058 457.82 106.32C450.153 81.0548 436.569 73.1023 393.821 80.8212C393.821 80.8212 376.821 70.8222 365.821 69.3212C354.82 67.8203 334.874 72.785 316.82 83.3203C332.426 66.8323 339.817 56.7467 370.82 49.8203C368.435 41.8195 368.216 36.8221 370.321 28.8212C377.621 19.4246 384.295 15.8253 406.821 16.3212C406.821 16.3212 423.321 -2.67876 425.821 0.321237C428.32 3.32124 417.321 14.8212 417.321 14.8212C417.321 14.8212 439.821 15.8212 439.321 19.3212C438.82 22.8212 417.321 23.8212 417.321 23.8212C417.321 23.8212 428.321 37.8212 425.821 38.8212C423.32 39.8212 406.821 22.8212 406.821 22.8212Z" fill="#FFCB49"/>
<path d="M367.819 114.32C366.363 109.135 375.937 102.487 379.819 92.3203L352.319 112.32C354.505 124.076 358.212 129.049 377.319 129.82C377.319 129.82 378.819 151.32 380.819 152.82C382.819 154.32 386.319 136.82 386.319 136.82C386.319 136.82 400.819 150.82 403.819 148.82C406.819 146.82 392.319 129.82 392.319 129.82C392.319 129.82 406.819 127.32 407.819 125.32C408.819 123.32 383.319 121.82 381.819 121.82C380.319 121.82 369.275 119.505 367.819 114.32Z" fill="#FFB90B"/>
<path d="M240.819 41.3202C270.587 52.448 287.846 62.5869 317.819 83.3203C291.097 87.8592 274.766 85.773 243.319 67.3202C225.861 57.5495 215.292 55.0759 195.319 54.8202C211.248 41.3839 221.261 38.6466 240.819 41.3202Z" fill="#FFB90B"/>
<path d="M195.319 54.8157C209.472 43.8517 221.403 43.7155 240.819 41.3203C226.142 36.3436 215.319 34.81 195.319 41.8157C175.319 48.8213 166.319 73.8157 166.319 73.8157C175.868 63.361 182.384 59.4865 195.319 54.8157Z" fill="#FFCB49"/>
<path d="M160.819 116.82C168.907 88.3872 176.521 74.247 196.319 54.3203C183.131 57.6081 176.837 61.9218 166.819 72.3203C159.271 91.1921 159.26 100.56 160.819 116.82Z" fill="#FFB90B"/>
<path d="M313.32 67.3192C310.2 72.2533 308.274 73.9325 304.32 74.3192L272.82 55.3192C272.82 55.3192 290.82 59.8203 295.32 57.8192C299.82 55.818 273.81 25.3194 276.32 7.81917C281.288 12.3432 283.035 15.9759 285.82 22.8192C285.82 22.8192 292.82 9.31917 299.82 4.81917C306.82 0.319168 292.82 26.8192 292.82 26.8192C292.82 26.8192 312.32 24.318 309.82 26.8192C307.32 29.3203 292.82 36.8192 292.82 36.8192C311.241 48.1637 316.646 54.7972 313.32 67.3192Z" fill="#FFB90B"/>
<path d="M450.319 85.8213C463.424 100.589 456.318 121.322 454.319 122.821C452.319 124.32 447.318 124.322 436.819 119.321C426.319 114.321 409.725 98.6627 393.819 81.3213C392.131 77.8832 437.213 71.0532 450.319 85.8213Z" fill="#FFB90B"/>
<path d="M300.819 115.32C323.789 127.957 339.526 126.738 378.319 93.3203L317.819 82.8203C282.195 88.0284 268.599 79.0483 242.319 66.8203C269.759 86.0874 281.233 96.9096 281.319 115.32C281.576 118.773 263.514 116.82 256.667 115.32C249.819 113.82 225.358 116.397 224.819 118.82C223.819 123.32 240.319 122.32 240.319 122.32C240.319 122.32 224.819 139.82 227.819 141.32C230.819 142.82 247.319 129.32 247.319 129.32C247.319 129.32 247.319 144.82 250.819 145.32C254.319 145.82 254.819 125.32 254.819 125.32C254.819 125.32 284.319 137.82 292.319 132.32C300.319 126.82 300.819 115.32 300.819 115.32Z" fill="#FFCB49"/>
<path d="M316.819 82.8203C347.073 64.2953 364.041 60.3517 394.319 80.8203C382.599 90.8083 377.819 98.321 359.319 99.3207C340.819 100.32 327.32 91.7992 316.819 82.8203Z" fill="#FFB90B"/>
<path d="M570.521 11.5547L511.027 132.994" stroke="#FFB90B" stroke-width="15" stroke-linecap="round"/>
<path d="M597.896 15.75L690.521 82.875L597.896 134.25" stroke="#FFB90B" stroke-width="15" stroke-linecap="round"/>
</svg>
